<?xml version="1.0" encoding="UTF-8" standalone="no"?>
<svg
   width="64"
   height="64"
   fill="none"
   version="1.1"
   viewBox="0 0 64.000001 64"
   id="svg12"
   sodipodi:docname="favicon.svg"
   inkscape:version="1.2.2 (b0a8486541, 2022-12-01)"
   xmlns:inkscape="http://www.inkscape.org/namespaces/inkscape"
   xmlns:sodipodi="http://sodipodi.sourceforge.net/DTD/sodipodi-0.dtd"
   xmlns="http://www.w3.org/2000/svg"
   xmlns:svg="http://www.w3.org/2000/svg">
  <defs
     id="defs16" />
  <sodipodi:namedview
     id="namedview14"
     pagecolor="#505050"
     bordercolor="#eeeeee"
     borderopacity="1"
     inkscape:showpageshadow="0"
     inkscape:pageopacity="0"
     inkscape:pagecheckerboard="0"
     inkscape:deskcolor="#505050"
     showgrid="false"
     inkscape:zoom="9.9174767"
     inkscape:cx="45.172781"
     inkscape:cy="27.426331"
     inkscape:window-width="1920"
     inkscape:window-height="1171"
     inkscape:window-x="0"
     inkscape:window-y="0"
     inkscape:window-maximized="1"
     inkscape:current-layer="svg12" />
  <g
     fill="#e04e45"
     id="g10"
     transform="matrix(1.3404938,0,0,1.3404938,1.1636827,0)">
    <path
       d="M 26.747,9.9252 V 9.9036 c -0.2371,0 -0.8563,-0.0018 -1.4881,-0.0018 0.8146,-1.0004 1.8574,-2.4903 2.2883,-4.394 C 27.8568,4.1385 27.5345,2.69 26.6855,1.6356 25.8364,0.5812 24.5419,0 23.0393,0 c -1.575,0 -2.9075,0.58659 -3.7511,1.65 -0.8292,1.0436 -1.1261,2.4903 -0.793,3.8686 0.4707,1.9559 1.461,3.4224 2.2268,4.3958 L 19.3099,9.9126 h -0.0362 l -19.274,-0.027 23.003,37.858 23.005,-37.79 z M 20.731,2.7818 c 0.4961,-0.62438 1.2945,-0.95546 2.3101,-0.95546 0.945,0 1.7109,0.32928 2.2105,0.95006 0.5033,0.62617 0.6916,1.4971 0.5033,2.3302 C 25.315,7.0535 24.0531,8.511 23.2982,9.3819 23.1805,9.51869 23.0683,9.64639 22.9687,9.77059 22.8746,9.64819 22.7696,9.52409 22.6609,9.3945 21.9549,8.5488 20.7709,7.1327 20.2803,5.0941 20.0793,4.2556 20.2477,3.3901 20.731,2.7819 Z m -1.4284,8.959 c 0.7622,0.0054 2.7464,0.0108 2.9926,0.0108 0.0435,0 0.0833,-0.0018 0.1231,-0.0054 h 0.125 v 5.0453 c -0.1213,0.009 -0.2408,0.0198 -0.3603,0.036 v 0.018 c -2.397,0.3149 -3.8507,1.6932 -4.4826,3.9748 -0.4218,1.524 0.134,3.3306 0.9451,4.259 -0.0779,-0.3058 -0.163,-0.5668 -0.2064,-0.8331 -0.277,-1.6752 0.5974,-3.336 2.1236,-4.0971 0.4652,-0.2321 0.9016,-0.5344 1.4338,-0.5902 0.2698,-0.027 0.5667,-0.0719 0.8147,0.0054 0.5142,0.1602 1.0446,0.3095 1.5316,0.5326 0.1177,0.054 0.2317,0.1116 0.3422,0.1764 2.3173,1.3315 2.6848,4.3274 0.802,6.2239 -0.0471,0.0468 -0.0924,0.0954 -0.1575,0.1656 1.4628,-0.4913 2.5834,-1.8858 2.9763,-3.3864 0.1249,-0.4732 0.1774,-0.9573 0.1448,-1.4269 C 28.3891,20.9408 28.1537,20.0358 27.6812,19.2476 27.4784,18.9112 27.234,18.5945 26.9407,18.3102 26.9371,18.3048 26.9335,18.303 26.9299,18.2994 26.9281,18.2976 26.9262,18.2958 26.9244,18.294 26.919,18.2886 26.9136,18.285 26.9081,18.2796 26.8864,18.2598 26.8647,18.24 26.843,18.222 26.8339,18.213 26.8249,18.2058 26.8158,18.1986 26.7995,18.1842 26.7832,18.1698 26.7669,18.1572 26.7506,18.1428 26.7343,18.1285 26.7181,18.1159 26.6873,18.0907 26.6583,18.0673 26.6275,18.0421 26.6167,18.0331 26.6076,18.0259 26.5968,18.0169 26.5696,17.9953 26.5424,17.9737 26.5135,17.9521 26.4266,17.8855 26.3379,17.8226 26.2473,17.7632 26.2238,17.747 26.2003,17.7326 26.1767,17.7164 26.1731,17.7128 26.1677,17.711 26.1641,17.7092 26.1405,17.6948 26.1188,17.6804 26.0953,17.666 26.0699,17.6498 26.0464,17.6354 26.0192,17.6192 25.9685,17.5886 25.916,17.5581 25.8617,17.5275 25.8545,17.5239 25.8491,17.5203 25.8436,17.5167 25.8074,17.4951 25.7694,17.4753 25.7314,17.4555 25.6825,17.4303 25.6336,17.4051 25.5829,17.3799 25.5684,17.3727 25.5558,17.3655 25.5413,17.3601 24.9095,17.056 24.207,16.8617 23.4629,16.7987 v -5.0525 l 19.286,0.0287 -6.4758,10.636 h -5.3606 c -0.3295,-1.8227 -1.251,-3.1956 -2.645,-4.1691 -0.4327,-0.3041 -0.9143,-0.5686 -1.4357,-0.7971 0.1322,0.1583 0.3078,0.3779 0.5015,0.6082 0.0597,0.072 0.1213,0.1439 0.1828,0.2159 0.8473,0.9842 1.3126,2.1142 1.4031,3.354 0.0163,0.2159 0.0217,0.4372 0.0145,0.6603 -0.0308,1.0203 -0.3603,1.9487 -0.9179,2.7872 -0.1177,0.1782 -0.2462,0.3527 -0.3856,0.5237 -0.1231,0.1511 -0.2209,0.3364 -0.2788,0.5236 -0.1521,0.4948 -0.3494,0.9518 -0.5884,1.3729 -0.1991,0.3472 -0.4254,0.6693 -0.6843,0.968 -0.545,0.6334 -1.222,1.157 -2.0259,1.5781 -0.105,0.0557 -0.2136,0.1061 -0.3512,0.1745 0.3621,0.0612 0.7423,0.0828 1.1351,0.0612 1.6022,-0.0846 3.3656,-0.8817 4.6111,-2.5299 0.831,-0.8493 1.4067,-2.1718 1.5353,-3.6905 0.0199,-0.2141 0.0289,-0.4318 0.0289,-0.655 0,-0.0215 -0.0018,-0.0431 -0.0018,-0.0647 h 4.7089 l -12.253,20.128 v -13.677 c 1.3976,-0.6027 2.4512,-1.5852 3.112,-2.9923 0.0363,-0.0774 0.067,-0.1583 0.125,-0.2987 -0.096,0.0558 -0.1449,0.081 -0.1901,0.1116 -1.0157,0.6783 -2.1454,0.9662 -3.3565,1.0202 -0.9251,0.0414 -1.8213,-0.0432 -2.6595,-0.466 -1.595,-0.8079 -2.7591,-1.9865 -3.2207,-3.7517 -0.5033,-1.9199 -0.0181,-3.6149 1.2148,-5.1335 0.0941,-0.1152 0.1973,-0.2249 0.2842,-0.3527 -1.1333,0.4301 -2.0801,1.112 -2.8188,2.0729 -0.3041,0.3958 -0.5449,0.8133 -0.7278,1.2505 v 0.0036 c -0.067,0.1836 -0.1267,0.3725 -0.1774,0.5632 -0.0416,0.1062 -0.0778,0.2267 -0.1104,0.3617 -0.0018,0.0072 -0.0037,0.0144 -0.0055,0.0216 -0.0163,0.0702 -0.0307,0.1439 -0.0434,0.2231 H 9.7577 L 3.2583,11.7157 Z m -4.4952,11.652 c -0.0054,0.0936 -0.0072,0.189 -0.0072,0.2825 0,0.0252 0,0.0486 0.0018,0.0738 -0.0018,0.0018 -0.0018,0.0036 0,0.0054 -0.0055,0.2213 0.0054,0.4337 0.0271,0.6352 0.0018,0.0072 0.0018,0.0126 0.0036,0.0198 0.0073,0.0504 0.0127,0.1025 0.02,0.1529 0.0018,0.009 0.0018,0.018 0.0036,0.0252 0.0054,0.0288 0.009,0.0576 0.0145,0.0846 -0.0018,0 0,0 0,0.0018 0.0036,0.027 0.0072,0.054 0.0126,0.0828 v 0.0108 c 0.0344,0.2159 0.0761,0.4282 0.1304,0.6369 0.009,0.036 0.0181,0.0738 0.0271,0.108 0.2698,1.013 0.7568,1.9361 1.4067,2.7206 v 0.0018 c 0.1829,0.2087 0.3856,0.4067 0.6065,0.5974 0.4544,0.3904 0.936,0.6909 1.4411,0.9123 0.8074,0.3112 1.6837,0.4804 2.5997,0.4804 0.4961,0 0.9795,-0.0504 1.4465,-0.1458 v 13.371 l -12.226,-20.122 h 4.4934 c 0,0.0216 -0.0018,0.0432 -0.0018,0.0647 z"
       id="path2" />
    <path
       d="m 19.979,26.216 c 0.907,0.8205 1.9914,1.0184 3.1863,0.8835 2.3789,-0.2717 3.7095,-2.8916 2.6957,-4.9536 -0.2299,-0.4679 -0.5341,-0.8763 -0.9921,-1.2038 0.4979,1.6716 0.2462,2.7476 -0.8219,3.5987 -0.9632,0.7665 -2.1363,0.8799 -3.1773,0.3131 -0.8816,-0.4804 -1.6927,-1.6806 -1.3125,-3.2515 -0.096,0.1368 -0.1521,0.2106 -0.201,0.2879 -0.8364,1.3334 -0.5684,3.2479 0.6228,4.3257 z"
       id="path4" />
    <path
       d="m 22.608,24.692 c 0.3639,-0.0576 0.7025,-0.1979 0.9885,-0.4354 -0.009,-0.027 -0.0181,-0.054 -0.0271,-0.081 -0.0815,0.018 -0.163,0.036 -0.2462,0.054 -0.7333,0.1619 -1.4936,-0.2177 -1.7941,-0.8997 -0.2336,-0.5272 -0.096,-1.094 0.3657,-1.506 0.4272,-0.3833 1.0102,-0.4517 1.5026,-0.1782 0.6409,0.3563 0.9541,1.0904 0.7712,1.8048 -0.0199,0.0737 -0.0344,0.1493 -0.0507,0.2249 0.0924,-0.0306 0.134,-0.0738 0.1666,-0.1224 0.936,-1.3387 0.248,-3.2856 -1.6638,-3.5429 -0.9704,-0.1296 -1.9389,0.4462 -2.4386,1.4071 -0.4345,0.8349 -0.3204,1.6482 0.2136,2.3895 0.5377,0.7468 1.3017,1.0293 2.2123,0.8853 z"
       id="path6" />
    <path
       d="m 22.757,21.96 c -0.458,0.0036 -0.8654,0.4102 -0.8618,0.8637 0.0037,0.5128 0.5323,0.986 1.0899,0.977 0.4942,-0.0072 0.7604,-0.2771 0.7604,-0.7701 C 23.7473,22.462 23.2802,21.9564 22.757,21.96 Z"
       id="path8" />
  </g>
</svg>
